<svg xmlns="http://www.w3.org/2000/svg" viewBox="0 0 429.62 101.65"><defs><style>.cls-1{fill:#87e954;}.cls-2,.cls-5{fill:#64a942;}.cls-3{fill:#6fca40;}.cls-4{fill:#101016;}.cls-5{stroke:#64a942;stroke-linecap:round;stroke-linejoin:round;stroke-width:0.27px;}</style></defs><g id="Layer_2" data-name="Layer 2"><g id="Layer_1-2" data-name="Layer 1"><path class="cls-1" d="M65,14.59a26.66,26.66,0,0,0-7.82-8.25A33.81,33.81,0,0,0,46.29,1.53,50,50,0,0,0,34,0a49.38,49.38,0,0,0-8.93.78A34.37,34.37,0,0,1,35.51,5.52a27.58,27.58,0,0,1,8.1,8.56,24.1,24.1,0,0,1,3.25,12.1,4.23,4.23,0,0,0,1.07,1.91,3.41,3.41,0,0,0,2.36.66H65.7a2.55,2.55,0,0,0,1.74-.66,2.18,2.18,0,0,0,.66-1.64A23.36,23.36,0,0,0,65,14.59Z"/><path class="cls-1" d="M41.92,15.11A25.38,25.38,0,0,0,34.4,7.16,33,33,0,0,0,23.83,2.48c-1-.25-2.06-.48-3.09-.67A30.3,30.3,0,0,0,10.17,7.22,25.91,25.91,0,0,0,3,16.4a23.06,23.06,0,0,0-1,2.34c2.29-2.21,5.54-3.33,9.75-3.33,3.76,0,6.78.8,9,2.38a11,11,0,0,1,2.9,3.27Q26.78,16.4,34,16.4q5.36,0,8.36,2.19a8.63,8.63,0,0,1,1.72,1.65A19.45,19.45,0,0,0,41.92,15.11Z"/><path class="cls-2" d="M42.19,59.9A14.77,14.77,0,0,1,34,62.09q-7.23,0-10.39-4.8a11.1,11.1,0,0,1-3.05,3.41,15.93,15.93,0,0,1-8.78,2.37q-6.42,0-9.86-3.53a23.82,23.82,0,0,0,1,2.55,25.66,25.66,0,0,0,7.11,9.19A29.68,29.68,0,0,0,20.53,76.6c1-.18,2.1-.4,3.14-.66a33.24,33.24,0,0,0,10.57-4.56,25.16,25.16,0,0,0,7.63-7.94,19.68,19.68,0,0,0,2.23-5.38A10.05,10.05,0,0,1,42.19,59.9Z"/><path class="cls-3" d="M11.78,61.1a13.86,13.86,0,0,0,7.66-2,9.93,9.93,0,0,0,3.08-3.9,20.51,20.51,0,0,1-1.31-6.86c-.08-1-.11-2.29-.11-3.82V33.78c0-1.46,0-2.7.11-3.72a19.71,19.71,0,0,1,1.31-6.9,9.55,9.55,0,0,0-3-3.78c-1.82-1.33-4.44-2-7.78-2-6.65,0-10.44,3.14-11.5,9.55-.09.84-.14,1.7-.17,2.58S0,31.85,0,33.44V45c0,1.57,0,2.86.11,3.89,0,.71.06,1.41.11,2.1C1.22,57.79,5,61.1,11.78,61.1Z"/><path class="cls-2" d="M67.44,50.29a2.56,2.56,0,0,0-1.74-.67H50.29a3.13,3.13,0,0,0-3.43,2.62,24.31,24.31,0,0,1-3.3,12.22A27.21,27.21,0,0,1,35.34,73,35.59,35.59,0,0,1,25,77.64a52.55,52.55,0,0,0,9,.74A50.77,50.77,0,0,0,46.12,76.9,34.15,34.15,0,0,0,57,72.2,26.12,26.12,0,0,0,64.93,64a23.49,23.49,0,0,0,3.17-12A2.16,2.16,0,0,0,67.44,50.29Z"/><path class="cls-4" d="M92.89,38.14h0c-8.25.1-14.21,3-17.73,8.73a18.46,18.46,0,0,0-2.77,9.88,18.82,18.82,0,0,0,1.34,7,17.87,17.87,0,0,0,4.5,6.52c3.65,3.37,8.6,5.08,14.72,5.08,8.19,0,14.17-2.95,17.8-8.75A18.07,18.07,0,0,0,113.53,57a17.81,17.81,0,0,0-5.84-13.75C104,39.85,99.06,38.14,92.89,38.14ZM104,56.91a11.26,11.26,0,0,1-.82,4.2A10.46,10.46,0,0,1,100.44,65a11.95,11.95,0,0,1-15,0A10.33,10.33,0,0,1,82,56.76a10.36,10.36,0,0,1,3.51-8.2,10.68,10.68,0,0,1,7.44-2.63,11.34,11.34,0,0,1,7.54,2.64A10.33,10.33,0,0,1,104,56.91Z"/><path class="cls-4" d="M144.25,41.3l.73.2a1.57,1.57,0,0,1,.76.35.79.79,0,0,1,.1.48V60.05L128.78,42.31c-.41-.43-.41-.63-.42-.67a.75.75,0,0,1,.33-.13l.75-.2V38.74H115.87V41.3l.73.2a1.69,1.69,0,0,1,.76.34.86.86,0,0,1,.1.49V71.16a.87.87,0,0,1-.1.51,1.62,1.62,0,0,1-.76.35l-.73.2v2.56h12V72.22l-.73-.2a1.71,1.71,0,0,1-.77-.35,1,1,0,0,1-.1-.51V52.93l17.36,17.93a6.45,6.45,0,0,1,.91,1.07,1.07,1.07,0,0,1-.23.07l-.79.17v2.61h12.73V72.22l-.74-.2a1.7,1.7,0,0,1-.76-.35.87.87,0,0,1-.1-.51V42.33a.86.86,0,0,1,.1-.49,1.78,1.78,0,0,1,.76-.34l.74-.2V38.74h-12Z"/><path class="cls-4" d="M192.4,51.45l2,1.34L200.26,44l-2.11-1.47-.59.55a2.29,2.29,0,0,1-.48.36,13.27,13.27,0,0,1-2-1A36.28,36.28,0,0,0,187.62,39a25.92,25.92,0,0,0-7.21-.89c-7.62,0-13.41,2.43-17.22,7.24a17.85,17.85,0,0,0-3.83,11.37,18.43,18.43,0,0,0,2.13,8.77,17.1,17.1,0,0,0,5.08,5.85c3.6,2.66,8.25,4,13.81,4a25.85,25.85,0,0,0,7.25-.91A35.65,35.65,0,0,0,195.07,71a13.41,13.41,0,0,1,2-1,2.68,2.68,0,0,1,.47.36l.59.55,2.11-1.47-5.85-8.76-2,1.41.08.6a3.44,3.44,0,0,1,0,.51.91.91,0,0,1-.33.66,9.21,9.21,0,0,1-2,1.37,17.82,17.82,0,0,1-8.86,2.36c-3.63,0-6.54-.9-8.66-2.68a10,10,0,0,1-3.73-8.15,10,10,0,0,1,3.73-8.15c2.12-1.78,5-2.68,8.66-2.68a17.91,17.91,0,0,1,8.86,2.35,9.75,9.75,0,0,1,2,1.36.89.89,0,0,1,.33.65,4,4,0,0,1,0,.55Z"/><path class="cls-4" d="M221.74,38.14h0c-8.25.1-14.21,3-17.73,8.73a18.46,18.46,0,0,0-2.77,9.88,18.82,18.82,0,0,0,1.34,7,18,18,0,0,0,4.49,6.52c3.66,3.37,8.61,5.08,14.73,5.08,8.18,0,14.17-2.95,17.79-8.75a18.68,18.68,0,0,0-3-23.41C232.89,39.85,227.91,38.14,221.74,38.14ZM232.8,56.91a11.26,11.26,0,0,1-.82,4.2A10.58,10.58,0,0,1,229.29,65a11.95,11.95,0,0,1-15,0,10.33,10.33,0,0,1-3.51-8.19,10.36,10.36,0,0,1,3.51-8.2,10.68,10.68,0,0,1,7.44-2.63,11.34,11.34,0,0,1,7.54,2.64A10.36,10.36,0,0,1,232.8,56.91Z"/><path class="cls-4" d="M281.6,71.44a18.86,18.86,0,0,1-2.4-3l-5.72-8.14C279.08,59,282,55.38,282,49.86a12.57,12.57,0,0,0-1-5,8.94,8.94,0,0,0-3.31-3.95,12,12,0,0,0-4.33-1.71,34.61,34.61,0,0,0-6.37-.47H244.72V41.3l.73.2a1.69,1.69,0,0,1,.76.34.91.91,0,0,1,.1.52V71.18a.81.81,0,0,1-.1.49,1.62,1.62,0,0,1-.76.35l-.73.2v2.56h12.62V72.2l-.75-.19a1.4,1.4,0,0,1-.73-.33.76.76,0,0,1-.12-.5V60.89h7.56l6.6,9.58a16.05,16.05,0,0,1,.89,1.45,1.56,1.56,0,0,1-.32.07l-.85.13v2.66h14.3V72L283,72A2.17,2.17,0,0,1,281.6,71.44ZM255.74,46.35h10.47a29.42,29.42,0,0,1,3.47.13,4.47,4.47,0,0,1,1.57.52c.59.32,1.37,1,1.37,2.81s-.78,2.5-1.37,2.81a4.88,4.88,0,0,1-1.59.52,29.18,29.18,0,0,1-3.45.14H255.74Z"/><path class="cls-4" d="M316,40.24c-2.38-1-5.64-1.5-10-1.5H286V41.3l.73.2a1.79,1.79,0,0,1,.77.34,1,1,0,0,1,.1.52v28.8a1,1,0,0,1-.1.51,1.71,1.71,0,0,1-.77.35l-.73.2v2.56h20a31.52,31.52,0,0,0,8-.87,14.71,14.71,0,0,0,5.7-3c3.82-3.26,5.76-8,5.76-14.17a20.79,20.79,0,0,0-1.92-9.19A14.69,14.69,0,0,0,316,40.24ZM297,46.35h8.34a16.73,16.73,0,0,1,5.12.63,7,7,0,0,1,3.07,2c1.55,1.74,2.34,4.35,2.34,7.74,0,4.7-1.4,7.75-4.3,9.32a13.57,13.57,0,0,1-6.23,1.1H297Z"/><path class="cls-4" d="M328.83,41.3l.73.2a1.69,1.69,0,0,1,.76.34.86.86,0,0,1,.1.49V71.16a.87.87,0,0,1-.1.51,1.62,1.62,0,0,1-.76.35l-.73.2v2.56h12.62V72.2L340.7,72a1.4,1.4,0,0,1-.73-.33.89.89,0,0,1-.11-.52V42.33a.87.87,0,0,1,.11-.51s.16-.17.72-.31l.76-.19V38.74H328.83Z"/><path class="cls-4" d="M385.24,71.46a8.27,8.27,0,0,1-1.25-2L371,43.2a2.79,2.79,0,0,1-.36-1.19c0-.2.25-.37.74-.51l.73-.21V38.74H358.06v2.51l.67.23c.77.27.77.56.77.7a3.89,3.89,0,0,1-.5,1.57L346.48,69.91a5.61,5.61,0,0,1-1,1.65,2.11,2.11,0,0,1-1,.44l-.8.16v2.62h13.26V72.2l-.76-.19c-.27-.07-.91-.26-.91-.55a3.06,3.06,0,0,1,.38-1.14l2-4.22h14.21l2.07,4.23a3.11,3.11,0,0,1,.39,1.1c0,.17,0,.43-.81.56l-.84.14v2.65h14.53V72.15L386.4,72A2.33,2.33,0,0,1,385.24,71.46ZM364.83,50.71l4,8.73h-8Z"/><path class="cls-4" d="M428,41.84a1.78,1.78,0,0,1,.76-.34l.74-.2V38.74h-12V41.3l.73.2a1.57,1.57,0,0,1,.76.35.79.79,0,0,1,.1.48V60.05L402,42.31c-.41-.43-.41-.63-.42-.67a.84.84,0,0,1,.33-.13l.75-.2V38.74H389.11V41.3l.73.2a1.69,1.69,0,0,1,.76.34.86.86,0,0,1,.1.49V71.16a.87.87,0,0,1-.1.51,1.62,1.62,0,0,1-.76.35l-.73.2v2.56h12V72.22l-.73-.2a1.71,1.71,0,0,1-.77-.35,1,1,0,0,1-.1-.51V52.93l17.36,17.93a6.45,6.45,0,0,1,.91,1.07,1.07,1.07,0,0,1-.23.07l-.79.17v2.61h12.73V72.22l-.74-.2a1.7,1.7,0,0,1-.76-.35,1,1,0,0,1-.1-.51V42.33A.86.86,0,0,1,428,41.84Z"/><path class="cls-5" d="M179.81,100.87V87.27c0-.32.15-.47.45-.47h4.85a4.45,4.45,0,0,1,3.22,1.34,4.41,4.41,0,0,1,.95,1.44,4.55,4.55,0,0,1,.34,1.75,4.36,4.36,0,0,1-.34,1.72,4.54,4.54,0,0,1-.94,1.44,4.36,4.36,0,0,1-3.17,1.34h-3.68v5a.38.38,0,0,1-.43.43h-.82A.38.38,0,0,1,179.81,100.87Zm8.13-9.56a2.68,2.68,0,0,0-.22-1.08,2.85,2.85,0,0,0-.61-.91,2.91,2.91,0,0,0-.9-.63,2.71,2.71,0,0,0-1.1-.23h-3.62v5.71h3.62a2.52,2.52,0,0,0,1.09-.24,3,3,0,0,0,.9-.62,3,3,0,0,0,.62-.91A2.72,2.72,0,0,0,187.94,91.31Z"/><path class="cls-5" d="M199.14,86.6a7.31,7.31,0,0,1,2.91.59,7.71,7.71,0,0,1,2.37,1.59A7.58,7.58,0,0,1,206,91.16a7.37,7.37,0,0,1,.58,2.93A7.17,7.17,0,0,1,206,97a7.61,7.61,0,0,1-1.61,2.36,7.71,7.71,0,0,1-2.37,1.59,7.34,7.34,0,0,1-2.93.59,7.26,7.26,0,0,1-2.9-.59,7.55,7.55,0,0,1-2.36-1.59,7.34,7.34,0,0,1-1.6-2.37,7.54,7.54,0,0,1,0-5.8,7.55,7.55,0,0,1,4-4A7.26,7.26,0,0,1,199.14,86.6Zm-5.76,7.45a5.65,5.65,0,0,0,.45,2.25,6,6,0,0,0,1.23,1.85,5.74,5.74,0,0,0,1.84,1.24,5.64,5.64,0,0,0,2.24.45,5.57,5.57,0,0,0,2.24-.45,5.81,5.81,0,0,0,1.83-1.24,6,6,0,0,0,1.23-1.85,5.83,5.83,0,0,0,0-4.49A5.85,5.85,0,0,0,203.21,90a5.64,5.64,0,0,0-1.83-1.24,5.57,5.57,0,0,0-2.24-.45A5.74,5.74,0,0,0,195.06,90a5.85,5.85,0,0,0-1.23,1.82A5.64,5.64,0,0,0,193.38,94.05Z"/><path class="cls-5" d="M213.47,98.76l4.7-11.69a.35.35,0,0,1,.35-.27h1.07c.24,0,.35.1.35.29v.07l0,.09-2.22,5.37c.41,1,.83,2.06,1.26,3.08l1.26,3.06L222.57,93q1.19-2.89,2.36-5.8a.53.53,0,0,1,.53-.37h.82c.28,0,.43.1.43.29a.16.16,0,0,1,0,.12L221,100.87c0,.06,0,.08,0,.08a.65.65,0,0,1-.1.19.36.36,0,0,1-.35.16h-.59a.44.44,0,0,1-.36-.13.54.54,0,0,1-.12-.24l-2.62-6.25-2.58,6.19a.61.61,0,0,1-.55.43h-.53a.38.38,0,0,1-.32-.13,1.14,1.14,0,0,1-.15-.24L207,87.25a.23.23,0,0,0,0-.07s0-.06,0-.09c0-.19.12-.29.36-.29h1c.22,0,.39.14.51.43Z"/><path class="cls-5" d="M230,86.8h9.4c.29,0,.43.15.43.45v.8a.44.44,0,0,1-.11.31.43.43,0,0,1-.34.14h-8.13v4.32h6.47a.49.49,0,0,1,.31.11.43.43,0,0,1,.12.34v.8a.48.48,0,0,1-.1.31.41.41,0,0,1-.33.14h-6.47V99.6h8.21c.3,0,.45.16.45.47v.8a.38.38,0,0,1-.43.43H230c-.29,0-.43-.13-.43-.41V87.25C229.58,87,229.72,86.8,230,86.8Z"/><path class="cls-5" d="M242.82,100.87V87.27c0-.32.14-.47.43-.47h5.65a4.51,4.51,0,0,1,1.79.36,4.39,4.39,0,0,1,1.46,1,4.63,4.63,0,0,1,1,1.46,4.52,4.52,0,0,1,.36,1.8,4.42,4.42,0,0,1-.74,2.5,4.61,4.61,0,0,1-1.94,1.67l2.58,5.29a1.23,1.23,0,0,1,0,.18c0,.17-.12.25-.35.25H252a.45.45,0,0,1-.3-.09,1.06,1.06,0,0,1-.2-.28l-2.37-5H244.5v4.88a.38.38,0,0,1-.43.43h-.82A.38.38,0,0,1,242.82,100.87Zm9-9.48a2.79,2.79,0,0,0-.23-1.11,3.06,3.06,0,0,0-.61-.93,3.19,3.19,0,0,0-.92-.65,2.75,2.75,0,0,0-1.15-.24h-4.4v5.87h4.42a2.75,2.75,0,0,0,1.15-.24,2.94,2.94,0,0,0,.91-.64,3,3,0,0,0,.6-.93A2.93,2.93,0,0,0,251.81,91.39Z"/><path class="cls-5" d="M262.64,100.87V87.27c0-.32.15-.47.45-.47h4.85a4.48,4.48,0,0,1,4.17,2.78,4.55,4.55,0,0,1,.34,1.75,4.36,4.36,0,0,1-.34,1.72,4.54,4.54,0,0,1-.94,1.44,4.45,4.45,0,0,1-1.42,1,4.28,4.28,0,0,1-1.75.36h-3.68v5a.38.38,0,0,1-.43.43h-.82A.38.38,0,0,1,262.64,100.87Zm8.13-9.56a2.68,2.68,0,0,0-.22-1.08,3,3,0,0,0-.61-.91,2.91,2.91,0,0,0-.9-.63,2.74,2.74,0,0,0-1.1-.23h-3.62v5.71h3.62a2.52,2.52,0,0,0,1.09-.24,3,3,0,0,0,.9-.62,3,3,0,0,0,.62-.91A2.72,2.72,0,0,0,270.77,91.31Z"/><path class="cls-5" d="M275.23,100.87V87.27c0-.32.14-.47.43-.47h5.65a4.52,4.52,0,0,1,1.8.36,4.45,4.45,0,0,1,1.45,1,4.63,4.63,0,0,1,1,1.46,4.52,4.52,0,0,1,.36,1.8,4.42,4.42,0,0,1-.74,2.5,4.61,4.61,0,0,1-1.94,1.67l2.58,5.29a1.23,1.23,0,0,1,0,.18c0,.17-.11.25-.35.25h-1.07a.48.48,0,0,1-.31-.09,1.06,1.06,0,0,1-.2-.28l-2.37-5h-4.63v4.88a.38.38,0,0,1-.43.43h-.82A.38.38,0,0,1,275.23,100.87Zm9-9.48a2.78,2.78,0,0,0-.22-1.11,3.09,3.09,0,0,0-.62-.93,3.19,3.19,0,0,0-.92-.65,2.75,2.75,0,0,0-1.15-.24h-4.4v5.87h4.42a2.75,2.75,0,0,0,1.15-.24,2.94,2.94,0,0,0,.91-.64,3,3,0,0,0,.61-.93A2.92,2.92,0,0,0,284.22,91.39Z"/><path class="cls-5" d="M290.71,87.23v13.64a.38.38,0,0,1-.43.43h-.82a.38.38,0,0,1-.43-.43V87.23a.38.38,0,0,1,.43-.43h.82A.38.38,0,0,1,290.71,87.23Z"/><path class="cls-5" d="M295.68,87.19c.16.42.37.94.62,1.56l.81,2c.3.72.6,1.47.91,2.24s.62,1.5.91,2.2l.8,2,.6,1.46.59-1.46c.25-.59.51-1.24.8-2s.58-1.45.89-2.21.62-1.52.91-2.24.57-1.4.82-2,.45-1.14.62-1.56a.58.58,0,0,1,.55-.37h.84c.29,0,.43.11.43.33a1.05,1.05,0,0,1,0,.13c0,.06,0,.09,0,.11l-5.61,13.54a1.34,1.34,0,0,1-.14.25c-.06.1-.19.14-.37.14h-.57a.49.49,0,0,1-.34-.12.65.65,0,0,1-.16-.25L294,87.6a.73.73,0,0,1-.07-.2,1.24,1.24,0,0,1-.06-.29c0-.21.14-.31.43-.31h.86A.53.53,0,0,1,295.68,87.19Z"/><path class="cls-5" d="M307.74,98.14l-1.1,2.77a.58.58,0,0,1-.55.39h-.84c-.27,0-.41-.1-.41-.31a1.41,1.41,0,0,1,0-.18.19.19,0,0,1,0-.07q1.41-3.4,2.38-5.72c.64-1.55,1.18-2.82,1.6-3.83s.75-1.79,1-2.33.39-.94.5-1.19.17-.43.21-.52a1.38,1.38,0,0,1,.13-.22.4.4,0,0,1,.36-.13h.57a.41.41,0,0,1,.35.13,1.54,1.54,0,0,1,.14.22l5.63,13.61a.25.25,0,0,0,0,.07,1.26,1.26,0,0,1,0,.16c0,.21-.14.31-.43.31h-.84a.51.51,0,0,1-.52-.37l-1.14-2.79Zm3.57-8.82-2.87,7.16h5.73Z"/><path class="cls-5" d="M317.06,86.8h10.05a.44.44,0,0,1,.31.11.43.43,0,0,1,.16.32V88a.48.48,0,0,1-.12.33.44.44,0,0,1-.35.14H323v12.37a.41.41,0,0,1-.45.43h-.81a.5.5,0,0,1-.32-.11.44.44,0,0,1-.12-.32V88.5h-4.19c-.3,0-.45-.16-.45-.47v-.8C316.61,86.94,316.76,86.8,317.06,86.8Z"/><path class="cls-5" d="M330.45,86.8h9.41a.39.39,0,0,1,.43.45v.8a.45.45,0,0,1-.12.31.42.42,0,0,1-.33.14H331.7v4.32h6.47a.49.49,0,0,1,.31.11.43.43,0,0,1,.12.34v.8a.48.48,0,0,1-.1.31.39.39,0,0,1-.33.14H331.7V99.6h8.21c.3,0,.45.16.45.47v.8a.38.38,0,0,1-.43.43h-9.48c-.28,0-.43-.13-.43-.41V87.25A.39.39,0,0,1,330.45,86.8Z"/><path class="cls-5" d="M351,99.64H358a.44.44,0,0,1,.3.12.45.45,0,0,1,.13.33v.78a.45.45,0,0,1-.12.31.41.41,0,0,1-.31.12h-8.31a.38.38,0,0,1-.43-.43V87.23a.44.44,0,0,1,.11-.3.42.42,0,0,1,.34-.13h.8a.38.38,0,0,1,.43.43Z"/><path class="cls-5" d="M362.86,87.23v13.64a.38.38,0,0,1-.43.43h-.82a.38.38,0,0,1-.43-.43V87.23a.38.38,0,0,1,.43-.43h.82A.38.38,0,0,1,362.86,87.23Z"/><path class="cls-5" d="M374.57,100.68h-.76c-.15,0-.29-.12-.39-.35l-4.5-10.58-1.07,11.12c0,.29-.15.43-.45.43h-.82a.38.38,0,0,1-.43-.43c.23-2.29.47-4.56.7-6.82s.47-4.53.71-6.82a.37.37,0,0,1,.13-.31.49.49,0,0,1,.34-.12h1.21a.45.45,0,0,1,.43.37l4.53,10.91,2.27-5.46c.76-1.81,1.51-3.63,2.27-5.45.06-.25.2-.37.41-.37h1.27a.39.39,0,0,1,.31.13.41.41,0,0,1,.12.3l1.43,13.64c0,.29-.15.43-.45.43H381a.38.38,0,0,1-.43-.43l-1.1-11.12L375,100.33C374.89,100.56,374.76,100.68,374.57,100.68Z"/><path class="cls-5" d="M387.18,87.23v13.64a.38.38,0,0,1-.43.43h-.82a.38.38,0,0,1-.43-.43V87.23a.38.38,0,0,1,.43-.43h.82A.38.38,0,0,1,387.18,87.23Z"/><path class="cls-5" d="M390.31,86.8h10.05a.44.44,0,0,1,.31.11.47.47,0,0,1,.16.32V88a.48.48,0,0,1-.12.33.44.44,0,0,1-.35.14h-4.17v12.37a.44.44,0,0,1-.11.31.45.45,0,0,1-.33.12h-.81a.5.5,0,0,1-.32-.11.44.44,0,0,1-.13-.32V88.5h-4.18c-.3,0-.45-.16-.45-.47v-.8C389.86,86.94,390,86.8,390.31,86.8Z"/><path class="cls-5" d="M404.09,86.8h9.4c.29,0,.43.15.43.45v.8a.44.44,0,0,1-.11.31.43.43,0,0,1-.34.14h-8.13v4.32h6.47a.49.49,0,0,1,.31.11.43.43,0,0,1,.12.34v.8a.48.48,0,0,1-.1.31.41.41,0,0,1-.33.14h-6.47V99.6h8.21c.3,0,.45.16.45.47v.8a.38.38,0,0,1-.43.43h-9.48c-.29,0-.43-.13-.43-.41V87.25C403.66,87,403.8,86.8,404.09,86.8Z"/><path class="cls-5" d="M417.29,100.89V87.27c0-.32.15-.47.45-.47h4.47a7.26,7.26,0,0,1,2.88.57,7.15,7.15,0,0,1,2.3,1.54,6.93,6.93,0,0,1,1.54,2.31,7.28,7.28,0,0,1,.56,2.85,7,7,0,0,1-.57,2.81,7.35,7.35,0,0,1-3.87,3.86,7.13,7.13,0,0,1-2.84.56h-4.47a.67.67,0,0,1-.33-.08A.39.39,0,0,1,417.29,100.89ZM419,99.64h3.36a5.08,5.08,0,0,0,2.22-.47,5.32,5.32,0,0,0,1.73-1.26,5.87,5.87,0,0,0,1.13-1.82,5.55,5.55,0,0,0,.41-2.14,5.66,5.66,0,0,0-.44-2.26A5.18,5.18,0,0,0,426.15,90a5.4,5.4,0,0,0-1.79-1.11,5.9,5.9,0,0,0-2.15-.39H419Z"/></g></g></svg>