<svg xmlns="http://www.w3.org/2000/svg" viewBox="0 0 261.36 61.84"><defs><style>.cls-1{fill:#87e954;}.cls-2,.cls-5{fill:#64a942;}.cls-3{fill:#6fca40;}.cls-4{fill:#fff;}.cls-5{stroke:#64a942;stroke-linecap:round;stroke-linejoin:round;stroke-width:0.17px;}</style></defs><g id="Layer_2" data-name="Layer 2"><g id="Layer_1-2" data-name="Layer 1"><path class="cls-1" d="M39.53,8.88a15.93,15.93,0,0,0-4.75-5A20.57,20.57,0,0,0,28.16.93,31,31,0,0,0,15.25.47,21,21,0,0,1,21.6,3.36a16.69,16.69,0,0,1,4.93,5.21,14.71,14.71,0,0,1,2,7.36,2.58,2.58,0,0,0,.65,1.16,2.05,2.05,0,0,0,1.43.4H40a1.56,1.56,0,0,0,1.06-.4,1.35,1.35,0,0,0,.4-1A14.15,14.15,0,0,0,39.53,8.88Z"/><path class="cls-1" d="M25.5,9.19a15.65,15.65,0,0,0-4.57-4.84A20.23,20.23,0,0,0,14.5,1.51c-.63-.15-1.26-.29-1.89-.41A18.72,18.72,0,0,0,6.18,4.39,15.89,15.89,0,0,0,1.83,10a12.82,12.82,0,0,0-.59,1.42,8.17,8.17,0,0,1,5.93-2,9.14,9.14,0,0,1,5.44,1.44,6.74,6.74,0,0,1,1.77,2c1.28-1.89,3.37-2.83,6.3-2.83a8.51,8.51,0,0,1,5.09,1.33,5.49,5.49,0,0,1,1.05,1A12.11,12.11,0,0,0,25.5,9.19Z"/><path class="cls-2" d="M25.67,36.44a9,9,0,0,1-5,1.33c-2.93,0-5-1-6.31-2.92a6.8,6.8,0,0,1-1.86,2.07,9.61,9.61,0,0,1-5.34,1.45,8,8,0,0,1-6-2.15,15.17,15.17,0,0,0,.62,1.55,15.59,15.59,0,0,0,4.33,5.59,17.93,17.93,0,0,0,6.37,3.24c.64-.11,1.28-.25,1.91-.4a20.29,20.29,0,0,0,6.43-2.78,15.19,15.19,0,0,0,4.64-4.83,11.93,11.93,0,0,0,1.36-3.27A6.12,6.12,0,0,1,25.67,36.44Z"/><path class="cls-3" d="M7.17,37.17a8.45,8.45,0,0,0,4.66-1.23,6,6,0,0,0,1.87-2.38,12.47,12.47,0,0,1-.8-4.17c-.05-.62-.06-1.4-.06-2.33V20.55c0-.89,0-1.64.06-2.26a12.12,12.12,0,0,1,.8-4.2,5.86,5.86,0,0,0-1.8-2.3,8,8,0,0,0-4.73-1.22c-4,0-6.35,1.91-7,5.81-.06.51-.09,1-.1,1.57S0,19.37,0,20.35v7c0,1,0,1.74.07,2.37,0,.43,0,.85.06,1.27C.74,35.16,3.05,37.17,7.17,37.17Z"/><path class="cls-2" d="M41,30.59a1.61,1.61,0,0,0-1.06-.4H30.59a2.32,2.32,0,0,0-1.4.4,2.36,2.36,0,0,0-.68,1.19,14.84,14.84,0,0,1-2,7.44,16.56,16.56,0,0,1-5,5.2,21.71,21.71,0,0,1-6.29,2.81,31.79,31.79,0,0,0,5.47.45,30.74,30.74,0,0,0,7.38-.9,20.61,20.61,0,0,0,6.62-2.86,15.73,15.73,0,0,0,4.82-5,14.32,14.32,0,0,0,1.93-7.31A1.33,1.33,0,0,0,41,30.59Z"/><path class="cls-4" d="M56.51,23.2h0c-5,.07-8.64,1.85-10.78,5.31a11.25,11.25,0,0,0-1.69,6,11.48,11.48,0,0,0,.82,4.28,11,11,0,0,0,2.73,4,12.75,12.75,0,0,0,9,3.08c5,0,8.62-1.79,10.83-5.32a11,11,0,0,0,1.7-5.87,10.89,10.89,0,0,0-3.55-8.37A12.85,12.85,0,0,0,56.51,23.2Zm6.73,11.42a6.82,6.82,0,0,1-.5,2.56,6.4,6.4,0,0,1-1.64,2.34,7.27,7.27,0,0,1-9.11,0,6.29,6.29,0,0,1-2.13-5,6.32,6.32,0,0,1,2.13-5,6.52,6.52,0,0,1,4.53-1.6,6.89,6.89,0,0,1,4.59,1.61A6.28,6.28,0,0,1,63.24,34.62Z"/><path class="cls-4" d="M87.75,25.12l.45.13c.36.1.45.19.46.21a.49.49,0,0,1,.06.29V36.53L78.34,25.74c-.25-.26-.25-.38-.25-.41a.46.46,0,0,1,.19-.08l.46-.12V23.57H70.49v1.55l.44.13a1.08,1.08,0,0,1,.47.21.49.49,0,0,1,.06.29V43.29a.52.52,0,0,1-.06.31,1.08,1.08,0,0,1-.47.21l-.44.12v1.56h7.3V43.93l-.45-.12a1,1,0,0,1-.46-.21.52.52,0,0,1-.06-.31V32.2L87.38,43.11a3.4,3.4,0,0,1,.55.65l-.14,0-.48.1v1.59h7.74V43.93l-.44-.12a1.08,1.08,0,0,1-.47-.21.52.52,0,0,1-.06-.31V25.75a.49.49,0,0,1,.06-.29s.11-.11.47-.21l.44-.13V23.57h-7.3Z"/><path class="cls-4" d="M117.05,31.3l1.23.82,3.55-5.33-1.29-.89-.36.33a1.17,1.17,0,0,1-.28.22,8,8,0,0,1-1.23-.62,22.44,22.44,0,0,0-4.53-2.09,15.77,15.77,0,0,0-4.39-.54c-4.63,0-8.16,1.48-10.47,4.4a10.86,10.86,0,0,0-2.34,6.92,11.22,11.22,0,0,0,1.3,5.34,10.34,10.34,0,0,0,3.09,3.55,13.82,13.82,0,0,0,8.4,2.44,16,16,0,0,0,4.42-.54,22.52,22.52,0,0,0,4.52-2.09,8.3,8.3,0,0,1,1.23-.64,2.29,2.29,0,0,1,.28.22l.36.34,1.29-.9-3.56-5.33-1.22.86,0,.37c0,.12,0,.22,0,.31a.55.55,0,0,1-.2.4,6,6,0,0,1-1.22.83,10.88,10.88,0,0,1-5.39,1.44A8,8,0,0,1,105,39.49a6.13,6.13,0,0,1-2.27-5,6.12,6.12,0,0,1,2.27-5,8,8,0,0,1,5.27-1.63,10.87,10.87,0,0,1,5.39,1.43,6,6,0,0,1,1.22.83.55.55,0,0,1,.2.39c0,.09,0,.21,0,.34Z"/><path class="cls-4" d="M134.89,23.2h0c-5,.07-8.65,1.85-10.79,5.31a11.24,11.24,0,0,0-1.68,6,11.47,11.47,0,0,0,.81,4.28,10.88,10.88,0,0,0,2.74,4,12.73,12.73,0,0,0,9,3.08c5,0,8.62-1.79,10.82-5.32a10.92,10.92,0,0,0,1.7-5.87,10.85,10.85,0,0,0-3.55-8.37A12.81,12.81,0,0,0,134.89,23.2Zm6.73,11.42a6.82,6.82,0,0,1-.5,2.56,7,7,0,0,1-10.74,2.33,6.27,6.27,0,0,1-2.14-5,6.3,6.3,0,0,1,2.14-5,6.49,6.49,0,0,1,4.53-1.6,6.88,6.88,0,0,1,4.58,1.61A6.25,6.25,0,0,1,141.62,34.62Z"/><path class="cls-4" d="M171.31,43.46a11,11,0,0,1-1.46-1.83l-3.48-5c3.41-.81,5.2-3,5.2-6.35a7.77,7.77,0,0,0-.61-3,5.33,5.33,0,0,0-2-2.4,7.19,7.19,0,0,0-2.63-1,21.07,21.07,0,0,0-3.88-.28H148.87v1.55l.45.13a1,1,0,0,1,.46.21.52.52,0,0,1,.06.31V43.3a.5.5,0,0,1-.06.3,1,1,0,0,1-.46.21l-.45.12v1.56h7.68V43.92l-.46-.11c-.33-.09-.43-.18-.44-.2a.47.47,0,0,1-.07-.31V37h4.6l4,5.83a8,8,0,0,1,.54.88l-.19,0-.52.08v1.61h8.7V43.83l-.57,0A1.34,1.34,0,0,1,171.31,43.46ZM155.58,28.2H162a19.81,19.81,0,0,1,2.11.07,3,3,0,0,1,.95.32,1.69,1.69,0,0,1,.84,1.71A1.68,1.68,0,0,1,165,32a2.79,2.79,0,0,1-1,.32,19.32,19.32,0,0,1-2.1.08h-6.37Z"/><path class="cls-4" d="M192.22,24.48a15.74,15.74,0,0,0-6.07-.91H174v1.55l.45.13a1,1,0,0,1,.46.21.52.52,0,0,1,.06.31V43.29a.52.52,0,0,1-.06.31,1,1,0,0,1-.46.21l-.45.12v1.56h12.16A19,19,0,0,0,191,45a8.9,8.9,0,0,0,3.46-1.81c2.33-2,3.51-4.89,3.51-8.63a12.63,12.63,0,0,0-1.17-5.59A8.92,8.92,0,0,0,192.22,24.48ZM180.7,28.2h5.07a10.37,10.37,0,0,1,3.12.38,4.28,4.28,0,0,1,1.87,1.23,7,7,0,0,1,1.42,4.71c0,2.86-.85,4.72-2.61,5.67a8.22,8.22,0,0,1-3.8.67H180.7Z"/><path class="cls-4" d="M200,25.12l.45.13a1,1,0,0,1,.46.21.49.49,0,0,1,.06.29V43.29a.52.52,0,0,1-.06.31,1,1,0,0,1-.46.21l-.45.12v1.56h7.68V43.92l-.46-.11c-.33-.09-.43-.18-.44-.2a.58.58,0,0,1-.07-.32V25.75a.47.47,0,0,1,.07-.31.91.91,0,0,1,.44-.19l.46-.11V23.57H200Z"/><path class="cls-4" d="M234.36,43.47a4.93,4.93,0,0,1-.76-1.22l-7.89-16a1.61,1.61,0,0,1-.22-.73c0-.11.15-.22.45-.31l.44-.12V23.57h-8.56v1.52l.41.15c.47.16.47.34.47.42a2.44,2.44,0,0,1-.3.95l-7.62,15.92a3.19,3.19,0,0,1-.6,1,1.28,1.28,0,0,1-.62.27l-.49.1v1.59h8.07V43.92l-.46-.11c-.17-.05-.56-.16-.56-.34a1.87,1.87,0,0,1,.23-.69l1.23-2.57h8.65l1.25,2.57a1.72,1.72,0,0,1,.24.68c0,.1,0,.25-.49.34l-.51.08v1.61h8.84v-1.6l-.49-.09A1.38,1.38,0,0,1,234.36,43.47ZM221.94,30.85l2.42,5.31h-4.87Z"/><path class="cls-4" d="M260.37,25.46s.1-.11.46-.21l.45-.13V23.57H254v1.55l.44.13a1,1,0,0,1,.47.21.49.49,0,0,1,.06.29V36.53L244.57,25.74c-.25-.26-.26-.38-.26-.41a.48.48,0,0,1,.2-.08l.46-.12V23.57h-8.26v1.55l.45.13a1,1,0,0,1,.46.21.49.49,0,0,1,.06.29V43.29a.52.52,0,0,1-.06.31,1,1,0,0,1-.46.21l-.45.12v1.56H244V43.93l-.44-.12a1.08,1.08,0,0,1-.47-.21.52.52,0,0,1-.06-.31V32.2L253.6,43.11a3.4,3.4,0,0,1,.55.65l-.13,0-.48.1v1.59h7.74V43.93l-.45-.12a1,1,0,0,1-.46-.21.5.5,0,0,1-.07-.31V25.75A.47.47,0,0,1,260.37,25.46Z"/><path class="cls-5" d="M109.39,61.37V53.09c0-.19.09-.29.27-.29h3a2.7,2.7,0,0,1,2,.82,2.65,2.65,0,0,1,.58.88,2.75,2.75,0,0,1,.21,1.06,2.66,2.66,0,0,1-.21,1,2.85,2.85,0,0,1-.57.87,2.65,2.65,0,0,1-1.93.82h-2.24v3.07a.23.23,0,0,1-.26.26h-.5A.23.23,0,0,1,109.39,61.37Zm4.94-5.82a1.65,1.65,0,0,0-.13-.66,1.9,1.9,0,0,0-.37-.55,1.75,1.75,0,0,0-.55-.38,1.53,1.53,0,0,0-.67-.15h-2.2v3.48h2.2a1.53,1.53,0,0,0,.67-.15,1.83,1.83,0,0,0,.54-.38,1.75,1.75,0,0,0,.38-.55A1.65,1.65,0,0,0,114.33,55.55Z"/><path class="cls-5" d="M121.15,52.68a4.36,4.36,0,0,1,1.76.36,4.56,4.56,0,0,1,1.45,1,4.59,4.59,0,0,1,1.33,3.23,4.33,4.33,0,0,1-.36,1.76,4.42,4.42,0,0,1-1,1.43,4.56,4.56,0,0,1-1.45,1,4.53,4.53,0,0,1-3.54,0A4.54,4.54,0,0,1,117,59a4.63,4.63,0,0,1,0-3.53,4.65,4.65,0,0,1,1-1.44,4.49,4.49,0,0,1,1.44-1A4.38,4.38,0,0,1,121.15,52.68Zm-3.51,4.54a3.44,3.44,0,0,0,.27,1.36,3.84,3.84,0,0,0,.75,1.13,3.44,3.44,0,0,0,1.12.75,3.49,3.49,0,0,0,1.37.28,3.45,3.45,0,0,0,1.36-.28,3.47,3.47,0,0,0,1.86-1.88,3.44,3.44,0,0,0,.27-1.36,3.45,3.45,0,0,0-1-2.48,3.68,3.68,0,0,0-1.11-.75,3.44,3.44,0,0,0-1.36-.27,3.49,3.49,0,0,0-1.37.27,3.61,3.61,0,0,0-1.12.75,3.88,3.88,0,0,0-.75,1.11A3.49,3.49,0,0,0,117.64,57.22Z"/><path class="cls-5" d="M129.87,60.08,132.72,53a.22.22,0,0,1,.21-.17h.66q.21,0,.21.18v0l0,.06-1.36,3.27c.26.62.51,1.25.77,1.87l.77,1.86,1.44-3.52c.48-1.17,1-2.35,1.43-3.53a.35.35,0,0,1,.33-.23h.5c.17,0,.26.06.26.18a.08.08,0,0,1,0,.07l-3.46,8.32s0,0,0,0a.57.57,0,0,1-.06.12.25.25,0,0,1-.22.1h-.35a.25.25,0,0,1-.22-.09.29.29,0,0,1-.08-.14l-1.59-3.8-1.57,3.77a.38.38,0,0,1-.34.26h-.32a.22.22,0,0,1-.19-.09.33.33,0,0,1-.09-.14l-3.46-8.32a.08.08,0,0,0,0,0V53q0-.18.21-.18h.58c.14,0,.24.09.31.26Z"/><path class="cls-5" d="M139.93,52.8h5.72c.17,0,.26.09.26.28v.48a.29.29,0,0,1-.07.19.26.26,0,0,1-.21.09h-4.94v2.63h3.93a.31.31,0,0,1,.19.06.27.27,0,0,1,.08.21v.49a.34.34,0,0,1-.07.19.25.25,0,0,1-.2.08h-3.93v3.09h5a.26.26,0,0,1,.28.29v.49a.24.24,0,0,1-.27.26h-5.76c-.18,0-.27-.09-.27-.25v-8.3C139.66,52.89,139.75,52.8,139.93,52.8Z"/><path class="cls-5" d="M147.72,61.37V53.09c0-.19.08-.29.26-.29h3.43a2.75,2.75,0,0,1,2,.82,3.08,3.08,0,0,1,.6.9,2.66,2.66,0,0,1,.22,1.09,2.69,2.69,0,0,1-.45,1.52,2.81,2.81,0,0,1-1.18,1l1.57,3.23a.35.35,0,0,1,0,.1c0,.11-.07.16-.21.16h-.65a.27.27,0,0,1-.19-.06.83.83,0,0,1-.12-.17l-1.44-3h-2.82v3a.23.23,0,0,1-.26.26H148A.23.23,0,0,1,147.72,61.37Zm5.47-5.77a1.72,1.72,0,0,0-.14-.68,2,2,0,0,0-.37-.56,1.85,1.85,0,0,0-.56-.4,1.67,1.67,0,0,0-.71-.15h-2.67v3.57h2.69a1.82,1.82,0,0,0,.7-.14,1.67,1.67,0,0,0,.55-.39,1.7,1.7,0,0,0,.37-.57A1.76,1.76,0,0,0,153.19,55.6Z"/><path class="cls-5" d="M159.77,61.37V53.09a.26.26,0,0,1,.28-.29H163a2.83,2.83,0,0,1,1.09.22,2.94,2.94,0,0,1,.87.6,2.65,2.65,0,0,1,.58.88,2.93,2.93,0,0,1,.2,1.06,2.72,2.72,0,0,1-1.64,2.52,2.73,2.73,0,0,1-1.07.22H160.8v3.07a.23.23,0,0,1-.26.26H160A.24.24,0,0,1,159.77,61.37Zm4.95-5.82a1.51,1.51,0,0,0-.14-.66,1.87,1.87,0,0,0-.36-.55,1.75,1.75,0,0,0-.55-.38,1.53,1.53,0,0,0-.67-.15h-2.2v3.48H163a1.45,1.45,0,0,0,.66-.15,1.75,1.75,0,0,0,.55-.38,1.72,1.72,0,0,0,.37-.55A1.51,1.51,0,0,0,164.72,55.55Z"/><path class="cls-5" d="M167.43,61.37V53.09c0-.19.09-.29.26-.29h3.44a2.92,2.92,0,0,1,1.1.22,2.86,2.86,0,0,1,.88.6,3.08,3.08,0,0,1,.6.9,2.83,2.83,0,0,1,.22,1.09,2.62,2.62,0,0,1-.46,1.52,2.78,2.78,0,0,1-1.17,1l1.57,3.23,0,.1c0,.11-.07.16-.21.16H173a.24.24,0,0,1-.18-.06.59.59,0,0,1-.13-.17l-1.44-3h-2.81v3a.24.24,0,0,1-.27.26h-.5A.23.23,0,0,1,167.43,61.37Zm5.47-5.77a1.72,1.72,0,0,0-.13-.68,1.79,1.79,0,0,0-.38-.56,1.74,1.74,0,0,0-.56-.4,1.6,1.6,0,0,0-.7-.15h-2.67v3.57h2.68a1.83,1.83,0,0,0,.71-.14,1.78,1.78,0,0,0,.55-.39,1.87,1.87,0,0,0,.37-.57A1.75,1.75,0,0,0,172.9,55.6Z"/><path class="cls-5" d="M176.85,53.06v8.31a.23.23,0,0,1-.26.26h-.5a.23.23,0,0,1-.26-.26V53.06a.23.23,0,0,1,.26-.26h.5A.23.23,0,0,1,176.85,53.06Z"/><path class="cls-5" d="M179.87,53c.11.26.23.57.38,1s.32.79.5,1.23.36.9.55,1.37l.55,1.34.49,1.18c.15.36.27.66.36.89.1-.23.22-.53.37-.89s.3-.75.48-1.19l.54-1.35.56-1.36c.18-.44.34-.85.49-1.23l.38-.95a.35.35,0,0,1,.33-.23h.52c.17,0,.26.07.26.21a.56.56,0,0,0,0,.07l0,.07-3.41,8.24a1.15,1.15,0,0,1-.08.15.26.26,0,0,1-.23.09h-.34a.29.29,0,0,1-.21-.08.33.33,0,0,1-.1-.15l-3.38-8.11a.35.35,0,0,1,0-.12.84.84,0,0,1,0-.18c0-.12.08-.19.26-.19h.52A.31.31,0,0,1,179.87,53Z"/><path class="cls-5" d="M187.21,59.7l-.67,1.69a.35.35,0,0,1-.33.24h-.51c-.17,0-.25-.07-.25-.19a.45.45,0,0,1,0-.11s0,0,0,0c.57-1.38,1.06-2.54,1.45-3.48s.72-1.71,1-2.33l.6-1.41c.14-.33.24-.57.3-.73s.11-.26.13-.31a.7.7,0,0,1,.08-.14.27.27,0,0,1,.22-.08h.35a.26.26,0,0,1,.21.08.41.41,0,0,1,.08.14l3.43,8.27,0,.05a.46.46,0,0,1,0,.1c0,.12-.08.19-.26.19h-.51a.31.31,0,0,1-.32-.23l-.69-1.7Zm2.18-5.36-1.75,4.35h3.48Z"/><path class="cls-5" d="M192.88,52.8H199a.34.34,0,0,1,.19.07.29.29,0,0,1,.09.19v.49a.27.27,0,0,1-.07.2.26.26,0,0,1-.21.09h-2.54v7.53a.24.24,0,0,1-.07.18.26.26,0,0,1-.2.08h-.49a.35.35,0,0,1-.2-.07.25.25,0,0,1-.07-.19V53.84h-2.55c-.18,0-.27-.1-.27-.29v-.49A.24.24,0,0,1,192.88,52.8Z"/><path class="cls-5" d="M201,52.8h5.72c.17,0,.26.09.26.28v.48a.25.25,0,0,1-.07.19.25.25,0,0,1-.2.09h-5v2.63h3.94a.28.28,0,0,1,.18.06.27.27,0,0,1,.08.21v.49a.28.28,0,0,1-.07.19.24.24,0,0,1-.19.08h-3.94v3.09h5c.18,0,.27.1.27.29v.49a.23.23,0,0,1-.26.26H201c-.18,0-.26-.09-.26-.25v-8.3C200.77,52.89,200.85,52.8,201,52.8Z"/><path class="cls-5" d="M213.5,60.62h4.3a.24.24,0,0,1,.18.07.26.26,0,0,1,.08.2v.48a.29.29,0,0,1-.07.18.26.26,0,0,1-.19.08h-5.06a.23.23,0,0,1-.26-.26V53.06a.29.29,0,0,1,.07-.18.28.28,0,0,1,.2-.08h.49a.23.23,0,0,1,.26.26Z"/><path class="cls-5" d="M220.75,53.06v8.31a.24.24,0,0,1-.27.26H220a.24.24,0,0,1-.27-.26V53.06a.24.24,0,0,1,.27-.26h.49A.24.24,0,0,1,220.75,53.06Z"/><path class="cls-5" d="M227.87,61.25h-.46c-.1,0-.18-.07-.24-.22l-2.74-6.43-.65,6.77a.24.24,0,0,1-.27.26H223a.24.24,0,0,1-.27-.26c.15-1.4.29-2.78.43-4.15s.29-2.76.43-4.16a.27.27,0,0,1,.08-.19.38.38,0,0,1,.21-.07h.73a.26.26,0,0,1,.26.23l2.76,6.64L229,56.35,230.4,53c0-.15.13-.23.25-.23h.78a.26.26,0,0,1,.19.08.29.29,0,0,1,.07.18l.87,8.31c0,.17-.1.26-.28.26h-.5a.23.23,0,0,1-.26-.26l-.66-6.77L228.12,61C228.06,61.18,228,61.25,227.87,61.25Z"/><path class="cls-5" d="M235.54,53.06v8.31a.23.23,0,0,1-.26.26h-.5a.23.23,0,0,1-.26-.26V53.06a.23.23,0,0,1,.26-.26h.5A.23.23,0,0,1,235.54,53.06Z"/><path class="cls-5" d="M237.44,52.8h6.12a.34.34,0,0,1,.19.07.29.29,0,0,1,.09.19v.49a.27.27,0,0,1-.07.2.26.26,0,0,1-.21.09H241v7.53a.24.24,0,0,1-.07.18.26.26,0,0,1-.2.08h-.49a.29.29,0,0,1-.19-.07.22.22,0,0,1-.08-.19V53.84h-2.55c-.18,0-.27-.1-.27-.29v-.49A.24.24,0,0,1,237.44,52.8Z"/><path class="cls-5" d="M245.83,52.8h5.72c.17,0,.26.09.26.28v.48a.25.25,0,0,1-.07.19.25.25,0,0,1-.2.09h-4.95v2.63h3.93a.29.29,0,0,1,.19.06.27.27,0,0,1,.08.21v.49a.34.34,0,0,1-.07.19.25.25,0,0,1-.2.08h-3.93v3.09h5c.19,0,.28.1.28.29v.49a.24.24,0,0,1-.27.26h-5.76c-.18,0-.26-.09-.26-.25v-8.3C245.57,52.89,245.65,52.8,245.83,52.8Z"/><path class="cls-5" d="M253.85,61.38V53.09a.26.26,0,0,1,.28-.29h2.72a4.41,4.41,0,0,1,1.75.35,4.37,4.37,0,0,1,2.34,2.34,4.57,4.57,0,0,1,.34,1.74,4.43,4.43,0,0,1-1.3,3.11,4.48,4.48,0,0,1-1.4.94,4.38,4.38,0,0,1-1.73.35h-2.72a.32.32,0,0,1-.2-.06A.21.21,0,0,1,253.85,61.38Zm1-.76h2a3.17,3.17,0,0,0,1.35-.29,3.11,3.11,0,0,0,1.05-.77,3.58,3.58,0,0,0,.67-3.78,3.11,3.11,0,0,0-.74-1.06,3.49,3.49,0,0,0-1.09-.67,3.58,3.58,0,0,0-1.31-.24h-2Z"/></g></g></svg>